HIERARCHY
ROOT Hips
{
	OFFSET	0.00	0.00	0.00
	CHANNELS 6 Xposition Yposition Zposition Zrotation Xrotation Yrotation
	JOINT LeftUpLeg
	{
		OFFSET	 0.126116	-0.014019	-0.065224
		CHANNELS 3 Zrotation Xrotation Yrotation
		JOINT LeftLeg
		{
			OFFSET	 0.000000	 0.000000	 0.569914
			CHANNELS 3 Zrotation Xrotation Yrotation
			JOINT LeftFoot
			{
				OFFSET	 0.000000	 0.000000	 0.544423
				CHANNELS 3 Zrotation Xrotation Yrotation
				JOINT LeftToeBase
				{
					OFFSET	 0.000000	 0.000000	 0.207117
					CHANNELS 3 Zrotation Xrotation Yrotation
					End Site
					{
						OFFSET	 0.000000	 0.000000	 0.207117
					}
				}
			}
		}
	}
	JOINT RightUpLeg
	{
		OFFSET	-0.124023	-0.008373	-0.065224
		CHANNELS 3 Zrotation Xrotation Yrotation
		JOINT RightLeg
		{
			OFFSET	 0.000000	 0.000000	 0.570047
			CHANNELS 3 Zrotation Xrotation Yrotation
			JOINT RightFoot
			{
				OFFSET	 0.000000	 0.000000	 0.544354
				CHANNELS 3 Zrotation Xrotation Yrotation
				JOINT RightToeBase
				{
					OFFSET	 0.000000	 0.000000	 0.207540
					CHANNELS 3 Zrotation Xrotation Yrotation
					End Site
					{
						OFFSET	 0.000000	 0.000000	 0.207540
					}
				}
			}
		}
	}
	JOINT Spine
	{
		OFFSET	 0.000184	-0.007763	 0.117403
		CHANNELS 3 Zrotation Xrotation Yrotation
		JOINT Spine1
		{
			OFFSET	 0.000000	 0.000000	 0.137269
			CHANNELS 3 Zrotation Xrotation Yrotation
			JOINT Spine2
			{
				OFFSET	 0.000000	 0.000000	 0.156879
				CHANNELS 3 Zrotation Xrotation Yrotation
				JOINT LeftShoulder
				{
					OFFSET	 0.080501	-0.002496	 0.160144
					CHANNELS 3 Zrotation Xrotation Yrotation
					JOINT LeftArm
					{
						OFFSET	 0.000000	 0.000000	 0.164363
						CHANNELS 3 Zrotation Xrotation Yrotation
						JOINT LeftForeArm
						{
							OFFSET	 0.000000	 0.000000	 0.364576
							CHANNELS 3 Zrotation Xrotation Yrotation
							JOINT LeftHand
							{
								OFFSET	 0.000000	 0.000000	 0.360812
								CHANNELS 3 Zrotation Xrotation Yrotation
								JOINT LeftHandIndex1
								{
									OFFSET	 0.000000	 0.000000	 0.086006
									CHANNELS 3 Zrotation Xrotation Yrotation
									JOINT LeftHandIndex2
									{
										OFFSET	 0.000000	 0.000000	 0.047236
										CHANNELS 3 Zrotation Xrotation Yrotation
										JOINT LeftHandIndex3
										{
											OFFSET	-0.004284	-0.000551	 0.038166
											CHANNELS 3 Zrotation Xrotation Yrotation
											End Site
											{
												OFFSET	-0.004284	-0.000551	 0.038166
											}
										}
									}
								}
							}
						}
					}
				}
				JOINT Neck
				{
					OFFSET	 0.000000	 0.000000	 0.176489
					CHANNELS 3 Zrotation Xrotation Yrotation
					JOINT Head
					{
						OFFSET	 0.000000	-0.001747	 0.077940
						CHANNELS 3 Zrotation Xrotation Yrotation
						End Site
						{
							OFFSET	 0.000000	-0.001747	 0.077940
						}
					}
				}
				JOINT RightShoulder
				{
					OFFSET	-0.080363	 0.000306	 0.159706
					CHANNELS 3 Zrotation Xrotation Yrotation
					JOINT RightArm
					{
						OFFSET	 0.000000	 0.000000	 0.164196
						CHANNELS 3 Zrotation Xrotation Yrotation
						JOINT RightForeArm
						{
							OFFSET	 0.000000	 0.000000	 0.365611
							CHANNELS 3 Zrotation Xrotation Yrotation
							JOINT RightHand
							{
								OFFSET	 0.000000	 0.000000	 0.360648
								CHANNELS 3 Zrotation Xrotation Yrotation
								JOINT RightHandIndex1
								{
									OFFSET	 0.000000	 0.000000	 0.069977
									CHANNELS 3 Zrotation Xrotation Yrotation
									JOINT RightHandIndex2
									{
										OFFSET	 0.000000	 0.000000	 0.052305
										CHANNELS 3 Zrotation Xrotation Yrotation
										JOINT RightHandIndex3
										{
											OFFSET	 0.009002	-0.000782	 0.042196
											CHANNELS 3 Zrotation Xrotation Yrotation
											End Site
											{
												OFFSET	 0.009002	-0.000782	 0.042196
											}
										}
									}
								}
							}
						}
					}
				}
			}
		}
	}
}
MOTION
Frames:    11
Frame Time: 0.03333334
-24.606080	-47.973000	 0.638998	-52.194890	 0.416765	 0.139886	 4.120881	-1.741005	 179.845800	 3.148374	-11.594570	 1.749879	 4.354856	 71.406410	 1.230548	-2.385833	 28.452760	 0.000004	-4.121233	-2.153045	-179.879800	-3.140193	-11.964010	-1.790653	-4.386740	 71.428390	-1.219508	 2.384659	 28.388700	-0.000001	 1.879907	 2.835502	 0.105370	 3.138812	-1.578162	 0.250619	 3.767679	-1.892013	 0.311123	-96.855680	 86.735770	-170.910800	 12.090980	 1.915943	-6.709803	-4.246717	-0.923940	-0.248798	-16.225220	-0.319901	-4.326568	-2.482367	 5.116409	 7.306710	-5.213516	-0.193813	 3.566525	-1.378229	 35.397820	-2.634230	-0.000002	-3.783157	-0.089647	 0.925820	 1.288390	-0.010410	 104.097500	 88.275240	 160.879200	-12.297030	 2.928372	 8.184141	 4.454307	-0.476437	 0.390638	 15.896190	-1.490400	 8.620444	 3.315085	 2.709412	-9.595269	 5.070815	-0.697434	-9.399699	-2.350882	 35.473990	 5.254307
-24.609940	-47.976880	 0.639116	-52.083240	 0.416765	 0.139886	 4.120881	-1.741005	 179.845800	 3.148374	-11.594570	 1.749879	 4.354856	 71.406410	 1.230548	-2.385833	 28.452760	 0.000004	-4.121233	-2.153045	-179.879800	-3.140193	-11.964010	-1.790653	-4.386740	 71.428390	-1.219508	 2.384659	 28.388700	-0.000001	 1.886108	 2.825455	 0.105587	 3.149172	-1.594876	 0.251902	 3.780128	-1.912055	 0.312808	-96.855680	 86.735770	-170.910800	 12.090980	 1.915943	-6.709803	-4.246612	-0.924055	-0.248809	-16.225170	-0.319915	-4.326613	-2.482367	 5.116409	 7.306710	-5.213516	-0.193813	 3.566525	-1.378229	 35.397820	-2.634230	-0.000002	-3.783157	-0.089647	 0.928810	 1.282968	-0.010400	 104.097500	 88.275240	 160.879200	-12.297030	 2.928372	 8.184141	 4.454288	-0.476443	 0.390580	 15.896280	-1.490474	 8.620481	 3.315085	 2.709412	-9.595269	 5.070815	-0.697434	-9.399699	-2.350882	 35.473990	 5.254307
-24.613660	-47.980540	 0.639087	-51.951860	 0.416765	 0.139886	 4.120881	-1.741005	 179.845800	 3.148374	-11.594570	 1.749879	 4.354856	 71.406410	 1.230548	-2.385833	 28.452760	 0.000004	-4.121233	-2.153045	-179.879800	-3.140193	-11.964010	-1.790653	-4.386740	 71.428390	-1.219508	 2.384659	 28.388700	-0.000001	 1.891534	 2.815720	 0.105793	 3.158241	-1.611073	 0.253073	 3.791037	-1.931477	 0.314351	-96.855680	 86.735770	-170.910800	 12.090980	 1.915943	-6.709803	-4.246549	-0.924055	-0.248771	-16.225130	-0.319799	-4.326644	-2.482367	 5.116409	 7.306710	-5.213516	-0.193813	 3.566525	-1.378229	 35.397820	-2.634230	-0.000002	-3.783157	-0.089647	 0.931381	 1.277732	-0.010386	 104.097500	 88.275240	 160.879200	-12.297030	 2.928372	 8.184141	 4.454227	-0.476404	 0.390597	 15.896390	-1.490528	 8.620512	 3.315085	 2.709412	-9.595269	 5.070815	-0.697434	-9.399699	-2.350882	 35.473990	 5.254307
-24.617280	-47.984030	 0.638977	-51.817060	 0.416765	 0.139886	 4.120881	-1.741005	 179.845800	 3.148374	-11.594570	 1.749879	 4.354856	 71.406410	 1.230548	-2.385833	 28.452760	 0.000004	-4.121233	-2.153045	-179.879800	-3.140193	-11.964010	-1.790653	-4.386740	 71.428390	-1.219508	 2.384659	 28.388700	-0.000001	 1.896445	 2.805891	 0.105996	 3.166448	-1.627431	 0.254180	 3.800891	-1.951092	 0.315815	-96.855680	 86.735770	-170.910800	 12.090980	 1.915943	-6.709803	-4.246510	-0.924057	-0.248762	-16.225110	-0.319732	-4.326644	-2.482367	 5.116409	 7.306710	-5.213516	-0.193813	 3.566525	-1.378229	 35.397820	-2.634230	-0.000002	-3.783157	-0.089647	 0.933707	 1.272466	-0.010369	 104.097500	 88.275240	 160.879200	-12.297030	 2.928372	 8.184141	 4.454299	-0.476433	 0.390503	 15.896410	-1.490582	 8.620562	 3.315085	 2.709412	-9.595269	 5.070815	-0.697434	-9.399699	-2.350882	 35.473990	 5.254307
-24.620990	-47.987580	 0.638839	-51.705140	 0.416765	 0.139886	 4.120881	-1.741005	 179.845800	 3.148374	-11.594570	 1.749879	 4.354856	 71.406410	 1.230548	-2.385833	 28.452760	 0.000004	-4.121233	-2.153045	-179.879800	-3.140193	-11.964010	-1.790653	-4.386740	 71.428390	-1.219508	 2.384659	 28.388700	-0.000001	 1.901041	 2.795310	 0.106211	 3.174158	-1.645043	 0.255284	 3.810163	-1.972211	 0.317285	-96.855680	 86.735770	-170.910800	 12.090980	 1.915943	-6.709803	-4.246536	-0.924095	-0.248720	-16.225020	-0.319722	-4.326745	-2.482367	 5.116409	 7.306710	-5.213516	-0.193813	 3.566525	-1.378229	 35.397820	-2.634230	-0.000002	-3.783157	-0.089647	 0.935874	 1.266816	-0.010347	 104.097500	 88.275240	 160.879200	-12.297030	 2.928372	 8.184141	 4.454199	-0.476369	 0.390479	 15.896490	-1.490680	 8.620574	 3.315085	 2.709412	-9.595269	 5.070815	-0.697434	-9.399699	-2.350882	 35.473990	 5.254307
-24.624120	-47.990540	 0.638757	-51.645390	 0.416765	 0.139886	 4.120881	-1.741005	 179.845800	 3.148374	-11.594570	 1.749879	 4.354856	 71.406410	 1.230548	-2.385833	 28.452760	 0.000004	-4.121233	-2.153045	-179.879800	-3.140193	-11.964010	-1.790653	-4.386740	 71.428390	-1.219508	 2.384659	 28.388700	-0.000001	 1.904569	 2.785963	 0.106397	 3.180071	-1.660604	 0.256189	 3.817287	-1.990874	 0.318496	-96.855680	 86.735770	-170.910800	 12.090980	 1.915943	-6.709803	-4.246518	-0.924124	-0.248653	-16.224970	-0.319741	-4.326777	-2.482367	 5.116409	 7.306710	-5.213516	-0.193813	 3.566525	-1.378229	 35.397820	-2.634230	-0.000002	-3.783157	-0.089647	 0.937514	 1.261881	-0.010325	 104.097500	 88.275240	 160.879200	-12.297030	 2.928372	 8.184141	 4.454207	-0.476318	 0.390409	 15.896530	-1.490767	 8.620602	 3.315085	 2.709412	-9.595269	 5.070815	-0.697434	-9.399699	-2.350882	 35.473990	 5.254307
-24.627620	-47.993740	 0.638781	-51.631470	 0.416765	 0.139886	 4.120881	-1.741005	 179.845800	 3.148374	-11.594570	 1.749879	 4.354856	 71.406410	 1.230548	-2.385833	 28.452760	 0.000004	-4.121233	-2.153045	-179.879800	-3.140193	-11.964010	-1.790653	-4.386740	 71.428390	-1.219508	 2.384659	 28.388700	-0.000001	 1.908023	 2.775106	 0.106607	 3.185845	-1.678675	 0.257154	 3.824234	-2.012548	 0.319795	-96.855680	 86.735770	-170.910800	 12.090980	 1.915943	-6.709803	-4.246555	-0.924159	-0.248704	-16.224910	-0.319769	-4.326787	-2.482367	 5.116409	 7.306710	-5.213516	-0.193813	 3.566525	-1.378229	 35.397820	-2.634230	-0.000002	-3.783157	-0.089647	 0.939087	 1.256122	-0.010294	 104.097500	 88.275240	 160.879200	-12.297030	 2.928372	 8.184141	 4.454223	-0.476258	 0.390390	 15.896550	-1.490864	 8.620529	 3.315085	 2.709412	-9.595269	 5.070815	-0.697434	-9.399699	-2.350882	 35.473990	 5.254307
-24.630660	-47.996410	 0.638974	-51.679090	 0.416765	 0.139886	 4.120881	-1.741005	 179.845800	 3.148374	-11.594570	 1.749879	 4.354856	 71.406410	 1.230548	-2.385833	 28.452760	 0.000004	-4.121233	-2.153045	-179.879800	-3.140193	-11.964010	-1.790653	-4.386740	 71.428390	-1.219508	 2.384659	 28.388700	-0.000001	 1.910529	 2.765301	 0.106792	 3.190054	-1.695001	 0.257946	 3.829306	-2.032130	 0.320870	-96.855680	 86.735770	-170.910800	 12.090980	 1.915943	-6.709803	-4.246513	-0.924228	-0.248773	-16.224920	-0.319800	-4.326915	-2.482367	 5.116409	 7.306710	-5.213516	-0.193813	 3.566525	-1.378229	 35.397820	-2.634230	-0.000002	-3.783157	-0.089647	 0.940283	 1.251011	-0.010266	 104.097500	 88.275240	 160.879200	-12.297030	 2.928372	 8.184141	 4.454186	-0.476273	 0.390358	 15.896590	-1.490973	 8.620506	 3.315085	 2.709412	-9.595269	 5.070815	-0.697434	-9.399699	-2.350882	 35.473990	 5.254307
-24.633790	-47.999100	 0.639430	-51.783360	 0.416765	 0.139886	 4.120881	-1.741005	 179.845800	 3.148374	-11.594570	 1.749879	 4.354856	 71.406410	 1.230548	-2.385833	 28.452760	 0.000004	-4.121233	-2.153045	-179.879800	-3.140193	-11.964010	-1.790653	-4.386740	 71.428390	-1.219508	 2.384659	 28.388700	-0.000001	 1.912587	 2.754776	 0.106986	 3.193510	-1.712529	 0.258711	 3.833466	-2.053156	 0.321918	-96.855680	 86.735770	-170.910800	 12.090980	 1.915943	-6.709803	-4.246537	-0.924105	-0.248740	-16.224900	-0.319840	-4.327018	-2.482367	 5.116409	 7.306710	-5.213516	-0.193813	 3.566525	-1.378229	 35.397820	-2.634230	-0.000002	-3.783157	-0.089647	 0.941181	 1.245480	-0.010231	 104.097500	 88.275240	 160.879200	-12.297030	 2.928372	 8.184141	 4.454240	-0.476244	 0.390358	 15.896540	-1.491074	 8.620475	 3.315085	 2.709412	-9.595269	 5.070815	-0.697434	-9.399699	-2.350882	 35.473990	 5.254307
-24.637100	-48.001820	 0.640249	-51.925540	 0.416765	 0.139886	 4.120881	-1.741005	 179.845800	 3.148374	-11.594570	 1.749879	 4.354856	 71.406410	 1.230548	-2.385833	 28.452760	 0.000004	-4.121233	-2.153045	-179.879800	-3.140193	-11.964010	-1.790653	-4.386740	 71.428390	-1.219508	 2.384659	 28.388700	-0.000001	 1.914132	 2.743131	 0.107194	 3.196147	-1.731925	 0.259462	 3.836663	-2.076422	 0.322960	-96.855680	 86.735770	-170.910800	 12.090980	 1.915943	-6.709803	-4.246574	-0.924236	-0.248817	-16.224900	-0.319798	-4.327022	-2.482367	 5.116409	 7.306710	-5.213516	-0.193813	 3.566525	-1.378229	 35.397820	-2.634230	-0.000002	-3.783157	-0.089647	 0.941856	 1.239446	-0.010188	 104.097500	 88.275240	 160.879200	-12.297030	 2.928372	 8.184141	 4.454187	-0.476200	 0.390447	 15.896570	-1.491167	 8.620503	 3.315085	 2.709412	-9.595269	 5.070815	-0.697434	-9.399699	-2.350882	 35.473990	 5.254307
-24.639390	-48.003640	 0.640854	-52.041760	 0.416765	 0.139886	 4.120881	-1.741005	 179.845800	 3.148374	-11.594570	 1.749879	 4.354856	 71.406410	 1.230548	-2.385833	 28.452760	 0.000004	-4.121233	-2.153045	-179.879800	-3.140193	-11.964010	-1.790653	-4.386740	 71.428390	-1.219508	 2.384659	 28.388700	-0.000001	 1.914744	 2.734720	 0.107340	 3.197187	-1.745938	 0.259936	 3.837913	-2.093232	 0.323626	-96.855680	 86.735770	-170.910800	 12.090980	 1.915943	-6.709803	-4.246669	-0.924212	-0.248739	-16.224980	-0.319759	-4.327041	-2.482367	 5.116409	 7.306710	-5.213516	-0.193813	 3.566525	-1.378229	 35.397820	-2.634230	-0.000002	-3.783157	-0.089647	 0.942078	 1.235089	-0.010155	 104.097500	 88.275240	 160.879200	-12.297030	 2.928372	 8.184141	 4.454217	-0.476213	 0.390496	 15.896560	-1.491197	 8.620543	 3.315085	 2.709412	-9.595269	 5.070815	-0.697434	-9.399699	-2.350882	 35.473990	 5.254307
